<svg width="115" height="40" viewBox="0 0 115 40" fill="none" xmlns="http://www.w3.org/2000/svg">
<g clip-path="url(#clip0_151_10305)">
<path d="M17.0885 39.9994C9.9167 39.9994 3.43937 35.9018 0.25315 29.5718C-0.378991 28.3195 0.219135 26.7923 1.5316 26.3338C2.6003 25.9613 3.78521 26.434 4.29829 27.4541C6.71063 32.274 11.6345 35.3945 17.0885 35.3945C21.7092 35.3945 25.9498 33.1536 28.6059 29.5374C29.462 28.3711 30.6498 26.5143 30.6498 23.5312L34.7346 27.8581C34.7346 27.8581 34.5192 28.4771 34.1053 29.2651C33.6914 30.0504 33.5185 30.3484 33.2663 30.7696C29.8986 36.4146 23.7983 39.9994 17.0885 39.9994Z" fill="#5EBC52"/>
<path d="M26.1193 19.8288C25.9463 17.5078 24.9287 15.6594 23.174 14.4818C21.7085 13.4989 19.7327 12.9974 17.3061 12.9974H17.034V12.9888H14.6585V9.21487H22.3009C23.4461 9.21487 24.3815 8.33802 24.3815 7.21759C24.3815 6.09432 23.4348 5.16016 22.3009 5.16016H12.5778C11.4298 5.16016 10.4971 6.10004 10.4971 7.26344V14.9631C10.4971 16.1236 11.4269 17.0664 12.5778 17.0664H17.3911C20.6114 17.0664 21.6376 18.5594 21.6376 20.101C21.6376 21.6169 20.8268 24.0498 17.4451 24.0498C14.6499 24.0498 12.9803 22.1384 12.6345 21.826C11.5998 20.889 10.5567 20.9549 9.865 21.571C8.98339 22.359 9.09112 23.4623 9.62404 24.2818C10.259 25.2533 12.7309 28.2706 17.4422 28.2706C20.1181 28.2706 22.4823 27.2993 24.0981 25.5398C25.5381 23.9724 26.2724 21.892 26.1193 19.8288Z" fill="#58595B"/>
<path d="M72.8718 22.5955C70.6012 22.4838 68.4412 21.5438 67.466 20.6527C66.386 19.664 66.1819 18.343 67.0238 17.6009C68.1265 16.6294 69.2433 17.5178 69.7197 17.8158C72.1915 19.366 74.1645 19.2457 75.0999 18.4978C75.647 18.0622 75.8709 17.5207 75.7972 17.0708C75.6612 16.254 74.7144 15.9647 73.5352 15.638C72.6478 15.3915 70.2582 14.6838 69.1244 14.0247C67.5 13.0762 66.3832 11.4973 66.763 9.29945C67.1627 6.97551 69.147 5.22466 71.738 4.9811C75.0205 4.67163 76.625 5.47396 77.5661 5.9869C78.9126 6.72048 79.1649 8.21628 78.459 9.06734C78.1331 9.45991 77.1834 9.82958 76.2337 9.40548C72.988 7.95551 71.3326 8.35383 70.9102 9.20489C70.4623 10.1075 71.2702 10.9758 72.3076 11.3798C72.3701 11.4027 72.9908 11.6578 73.8668 11.9443C74.6237 12.1936 75.5619 12.4515 76.5881 12.8384C78.4788 13.549 80.0692 15.062 79.831 17.5923C79.7035 18.9362 78.9183 20.4177 77.7447 21.2945C76.8801 21.9393 75.1679 22.7102 72.8718 22.5955Z" fill="#58595B"/>
<path d="M92.3861 18.5456C91.9071 18.3651 91.2041 18.4425 90.7874 18.517C90.2261 18.6174 89.3473 18.7234 88.6329 18.517C87.3857 18.1589 86.9236 17.4396 86.9236 16.3306V8.92039H89.8831C91.0085 8.92039 91.924 8.0378 91.924 6.95176C91.924 5.86287 91.0113 4.98315 89.8831 4.98315H86.9236V2.15488C86.9236 0.965684 85.9711 0 84.7919 0C83.6154 0 82.663 0.965684 82.663 2.15488V4.98315H81.6993C80.5739 4.98315 79.6582 5.86574 79.6582 6.95176C79.6582 8.04066 80.571 8.92039 81.6993 8.92039H82.663V16.3306C82.663 19.8123 85.4098 22.6463 88.9108 22.6463C92.4116 22.6463 93.3385 21.3769 93.3385 20.1876C93.3358 19.3338 93.0522 18.795 92.3861 18.5456Z" fill="#58595B"/>
<path d="M57.3819 4.98242C52.6875 4.98242 48.8691 8.93399 48.8691 13.7882C48.8691 18.6452 52.6875 22.594 57.379 22.594C62.0732 22.594 65.8888 18.6423 65.8888 13.7882C65.8945 8.93112 62.0761 4.98242 57.3819 4.98242ZM57.3819 18.6252C54.9552 18.6252 52.9851 16.883 52.9851 13.7882C52.9851 10.6934 54.9581 8.93112 57.3819 8.93112C59.8055 8.93112 61.7785 10.6934 61.7785 13.7882C61.7785 16.883 59.8055 18.6252 57.3819 18.6252Z" fill="#58595B"/>
<path d="M39.5475 4.98242C37.8778 4.98242 35.7971 5.95957 34.7397 7.47257C34.6803 6.01401 33.9064 5.03687 32.7782 5.03687C31.6017 5.03687 30.6465 6.00256 30.6465 7.19175V27.0011C30.6465 28.1903 31.6017 29.156 32.7782 29.156C33.9545 29.156 34.9099 28.1932 34.9099 27.0011V20.4992C35.7177 21.5623 37.7275 22.6026 39.726 22.6026C44.4204 22.6026 47.7936 18.6452 47.7936 13.7882C47.7936 8.93112 44.392 4.98242 39.5475 4.98242ZM39.281 18.6252C36.554 18.6252 34.666 16.6967 34.666 13.7882C34.666 10.6046 36.9707 8.93112 39.281 8.93112C41.7047 8.93112 43.6776 11.2264 43.6776 13.7882C43.6804 16.35 41.7075 18.6252 39.281 18.6252Z" fill="#58595B"/>
<path d="M107.997 10.9432L106.79 8.91442L105.605 10.9432H104.19L106.01 7.88569L104.156 5.04883H105.633L106.821 6.94294L107.955 5.04883H109.369L107.547 7.98025L109.42 10.9432H107.997Z" fill="#231F20"/>
<path d="M114.025 8.94126C114.025 10.2365 113.058 11.0474 111.791 11.0474C110.674 11.0474 109.736 10.4256 109.643 9.06733H110.85C110.935 9.65763 111.4 9.90981 111.907 9.90981C112.54 9.90981 112.815 9.47997 112.815 8.92406C112.815 8.34236 112.389 7.98131 111.8 7.98131C111.309 7.98131 110.983 8.21915 110.833 8.47131H109.679L110.079 5.05273H113.875L113.747 6.19895H111.032L110.924 7.33083C110.924 7.33083 111.21 6.9927 112.075 6.9927C113.115 6.98697 114.025 7.69476 114.025 8.94126Z" fill="#231F20"/>
<path d="M109.787 4.31549C109.144 1.7795 107.103 0 102.868 0H97.7539L98.4485 4.74531C98.9701 9.02641 100.591 10.4047 103.457 10.9119C103.472 10.9148 103.562 10.9263 103.562 10.8202C103.562 10.783 103.54 10.7486 103.506 10.7343C101.567 9.90899 101.345 7.20394 100.932 4.49029L100.611 2.32681H103.531C106.224 2.32681 108.302 2.28382 109.617 4.38425C109.637 4.41291 109.668 4.43584 109.702 4.43584C109.753 4.43584 109.79 4.39285 109.79 4.34128C109.79 4.33267 109.79 4.32409 109.787 4.31549Z" fill="#5EBC52"/>
</g>
<defs>
<clipPath id="clip0_151_10305">
<rect width="115" height="40" fill="white"/>
</clipPath>
</defs>
</svg>
