<svg width="81" height="81" viewBox="0 0 81 81" fill="none" xmlns="http://www.w3.org/2000/svg">
<path d="M63.8715 25.9418L64.31 26.188C64.8226 26.4759 65.4397 26.5098 65.9808 26.2799L66.8387 25.9152L68.1256 25.4434L68.9836 25.0787L69.6485 24.8214L70.5493 24.564L71.4716 24.4353L72.0721 24.4353C72.7421 24.4353 73.4101 24.5093 74.0638 24.6561L74.1312 24.6712C74.7867 24.8992 75.4133 25.203 75.9984 25.5764L76.1259 25.6579C76.6396 26.0717 77.1151 26.5308 77.5467 27.0298L77.5844 27.0735L77.6766 27.2131C78.1143 27.8759 78.4789 28.5842 78.7641 29.3255L78.9005 30.2306C78.9667 30.67 78.9894 31.1148 78.9682 31.5586L78.9668 31.5892C78.9461 32.0236 78.8815 32.4549 78.7741 32.8764L78.767 32.9041C78.6937 33.1919 78.5993 33.4739 78.4846 33.7479C78.3423 34.0877 78.1694 34.4139 77.968 34.7223L77.893 34.8371C77.6878 35.1514 77.4525 35.445 77.1905 35.7139C76.9105 36.0013 76.6014 36.2589 76.2683 36.4825L75.726 36.8465C75.378 37.0801 75.0204 37.3009 74.6361 37.4683C74.4172 37.5637 74.1695 37.66 73.9596 37.7119C73.4855 37.8291 72.7156 37.8406 72.7156 37.8406L72.5923 37.8406C71.7616 37.8406 70.9332 37.7543 70.1203 37.5832L68.576 37.0684L66.5384 36.2534L65.734 35.9121C65.3333 35.7421 64.8956 35.6784 64.4632 35.7272C63.9038 35.7902 63.3814 36.0381 62.9788 36.4315L62.6563 36.7467C62.4426 37.5727 62.3345 38.4225 62.3345 39.2757L62.3345 62.3347L40.2285 62.3347C39.9112 62.3347 39.596 62.3868 39.2956 62.4888L39.1705 62.5313C38.8041 62.6557 38.4737 62.868 38.2083 63.1496L38.1141 63.2495C37.9757 63.3962 37.8657 63.5673 37.7896 63.7541C37.7098 63.9499 37.6688 64.1593 37.6688 64.3708L37.6688 64.6425C37.6688 65.0861 37.7665 65.5243 37.9549 65.9259L38.4838 67.0534L39.1058 68.5977L39.5139 69.6993C39.6704 70.1221 39.7846 70.5593 39.8545 71.0047C39.9413 71.557 39.9596 72.118 39.909 72.6749L39.8747 73.052C39.8483 73.3422 39.7989 73.6297 39.7268 73.912C39.6277 74.3002 39.4864 74.6763 39.3053 75.0337L39.2129 75.216C38.9141 75.8057 38.537 76.3524 38.0919 76.8412L38.0292 76.91C37.7893 77.1734 37.5281 77.4165 37.2483 77.6368L37.1291 77.7306C36.8179 77.9756 36.4794 78.1839 36.1205 78.3515C35.8378 78.4834 35.5437 78.5894 35.2418 78.6681L34.9998 78.7313C34.4784 78.8673 33.9444 78.9496 33.4062 78.977L32.9501 79.0002L32.6485 78.9801C32.2072 78.9507 31.77 78.8772 31.3434 78.7609C30.6742 78.5784 30.0378 78.2921 29.4572 77.9125L29.3196 77.8226C28.882 77.5364 28.4833 77.1948 28.1336 76.8061C27.7152 76.3413 27.3714 75.8144 27.1145 75.2442L26.9701 74.9235C26.7395 74.4117 26.5739 73.8731 26.4771 73.3202C26.3745 72.734 26.3509 72.1295 26.4055 71.5369C26.4498 71.0555 26.5457 70.5743 26.6905 70.113L27.0518 68.9623L27.7167 67.3537L28.21 66.1097L28.4158 65.6793C28.5897 65.3157 28.6583 64.9107 28.6138 64.5101C28.574 64.1523 28.4453 63.8101 28.2395 63.5147L28.2214 63.4888C28.1141 63.3348 27.9883 63.1947 27.8467 63.0716L27.8344 63.061C27.6568 62.9065 27.4576 62.7789 27.243 62.6821L27.1223 62.6277C26.6941 62.4346 26.2298 62.3347 25.7601 62.3347L1.99999 62.3347L2 37.7293C2 37.3946 2.08693 37.0655 2.2523 36.7745C2.43756 36.4484 2.71367 36.1833 3.04699 36.0115L3.36843 35.8457C3.7236 35.6626 4.1174 35.567 4.51699 35.567C4.92067 35.567 5.31836 35.6645 5.67626 35.8513L7.10472 36.5966L8.60069 37.164C9.25949 37.4139 9.94689 37.5807 10.647 37.6605L10.8616 37.685C11.6405 37.7738 12.4287 37.7343 13.1949 37.568L13.4949 37.5029C14.3569 37.3158 15.1652 36.9356 15.8591 36.3911C16.2838 36.0578 16.6601 35.6672 16.9773 35.2305L17.1609 34.9777C17.8112 34.0826 18.236 33.0439 18.3993 31.9496L18.4242 31.783C18.527 31.0938 18.5077 30.3919 18.3669 29.7094C18.2239 29.0158 17.9579 28.3535 17.5814 27.7537L17.5209 27.6572C17.1006 26.9876 16.5627 26.3994 15.9333 25.921L15.8827 25.8826C15.4799 25.5764 15.0445 25.3155 14.5845 25.1047L14.4192 25.0289C13.6274 24.666 12.7667 24.4782 11.8957 24.4782C11.5621 24.4782 11.229 24.5057 10.9 24.5606L10.5272 24.6227C9.90546 24.7263 9.2942 24.8851 8.70063 25.0971L7.79108 25.4219L6.21626 26.1297C5.99403 26.2296 5.7628 26.308 5.52569 26.364L5.0991 26.4647C4.60386 26.5817 4.08454 26.5419 3.61287 26.351C2.93126 26.0751 2.40908 25.5084 2.18976 24.8066L2.13083 24.618C2.04411 24.3405 2 24.0514 2 23.7607L2 2.68688C2 2.30763 2.30744 2.00018 2.68669 2.00018L26.0712 2.00019C26.7823 2.00019 27.4652 2.27855 27.9736 2.77571L28.0115 2.81274C28.1008 2.90003 28.1822 2.99502 28.2547 3.09661C28.5957 3.57394 28.7239 4.1711 28.6088 4.7463L28.5599 4.99081C28.5269 5.15585 28.4785 5.31743 28.4154 5.47345L26.8648 9.30642C26.6896 9.73941 26.5586 10.189 26.4738 10.6483L26.4586 10.7301C26.312 11.5236 26.3145 12.3376 26.4659 13.1302C26.5559 13.6018 26.698 14.0619 26.8894 14.5022L27.1258 15.0458C27.3469 15.5544 27.6432 16.0269 28.0047 16.4474C28.3401 16.8376 28.7283 17.1791 29.1581 17.4621L29.2092 17.4958C29.908 17.956 30.6957 18.2642 31.5212 18.4006L32.0896 18.4944C32.4339 18.5513 32.7823 18.5799 33.1313 18.5799C34.1127 18.5799 35.0809 18.354 35.9609 17.9197L36.2746 17.7648L36.7615 17.4367C37.7343 16.7811 38.5118 15.8747 39.0118 14.8134C39.3155 14.1687 39.5113 13.4784 39.5912 12.7702L39.6051 12.6474C39.7144 11.6791 39.6276 10.6988 39.3497 9.76484L39.0447 8.73928C38.8571 8.10854 38.6134 7.49582 38.3167 6.90846L37.9036 6.09066C37.7761 5.83834 37.6797 5.5715 37.6163 5.29599L37.4871 4.73385C37.3565 4.16572 37.4626 3.56891 37.7811 3.08062C38.0809 2.62097 38.5453 2.29361 39.079 2.16582L39.4225 2.08357C39.6539 2.02817 39.8909 2.00019 40.1288 2.00019L62.9565 2.00019L62.382 23.3167C62.3528 24.4004 62.9263 25.411 63.8715 25.9418Z" fill="#FE0000" stroke="#FF0000" stroke-width="3"/>
</svg>
