<svg width="34" height="26" viewBox="0 0 34 26" fill="none" xmlns="http://www.w3.org/2000/svg">
<g clip-path="url(#clip0_87_13429)">
<path d="M0 0H34V26H0V0Z" fill="#012169"/>
<path d="M3.98438 0L16.9469 9.80417L29.8563 0H34V3.35833L21.25 13.0542L34 22.6958V26H29.75L17 16.3042L4.30312 26H0V22.75L12.6969 13.1083L0 3.46667V0H3.98438Z" fill="white"/>
<path d="M22.525 15.2208L34 23.8333V26L19.6031 15.2208H22.525ZM12.75 16.3042L13.0688 18.2L2.86875 26H0L12.75 16.3042ZM34 0V0.1625L20.7719 10.3458L20.8781 7.9625L31.3438 0H34ZM0 0L12.6969 9.53333H9.50938L0 2.275V0Z" fill="#C8102E"/>
<path d="M12.8031 0V26H21.3031V0H12.8031ZM0 8.66667V17.3333H34V8.66667H0Z" fill="white"/>
<path d="M0 10.4542V15.6542H34V10.4542H0ZM14.5031 0V26H19.6031V0H14.5031Z" fill="#C8102E"/>
</g>
<defs>
<clipPath id="clip0_87_13429">
<rect width="34" height="26" fill="white"/>
</clipPath>
</defs>
</svg>
