<svg width="35" height="26" viewBox="0 0 35 26" fill="none" xmlns="http://www.w3.org/2000/svg">
<rect width="35" height="26" fill="#0077FF"/>
<g clip-path="url(#clip0_87_13435)">
<path d="M27.6983 8.23106C27.8389 7.76086 27.6983 7.41479 27.0224 7.41479H24.7855C24.2158 7.41479 23.9538 7.71196 23.8133 8.04298C23.8133 8.04298 22.6739 10.7927 21.0637 12.5757C20.5434 13.091 20.3041 13.2565 20.0193 13.2565C19.8788 13.2565 19.6623 13.091 19.6623 12.6208V8.23106C19.6623 7.66682 19.5028 7.41479 19.0319 7.41479H15.5152C15.1582 7.41479 14.9455 7.67811 14.9455 7.92261C14.9455 8.45675 15.7507 8.58088 15.8342 10.0855V13.3506C15.8342 14.0653 15.7051 14.1969 15.4202 14.1969C14.6607 14.1969 12.815 11.4359 11.7212 8.2762C11.501 7.66306 11.2845 7.41479 10.711 7.41479H8.47418C7.83615 7.41479 7.70703 7.71196 7.70703 8.04298C7.70703 8.62978 8.46658 11.545 11.2427 15.3969C13.0922 18.0262 15.6975 19.4518 18.0673 19.4518C19.4914 19.4518 19.6661 19.1359 19.6661 18.5904C19.6661 16.0777 19.537 15.8407 20.251 15.8407C20.5814 15.8407 21.151 16.0062 22.4803 17.2739C23.9993 18.7785 24.25 19.4518 25.1007 19.4518H27.3376C27.9756 19.4518 28.2984 19.1359 28.1123 18.5114C27.687 17.1986 24.8121 14.4978 24.6829 14.3173C24.3525 13.896 24.4475 13.7079 24.6829 13.3318C24.6867 13.328 27.4173 9.52128 27.6983 8.23106Z" fill="white"/>
</g>
<defs>
<clipPath id="clip0_87_13435">
<rect width="21.875" height="21.6667" fill="white" transform="translate(7 2.59998)"/>
</clipPath>
</defs>
</svg>
