<svg width="35" height="35" viewBox="0 0 35 35" fill="none" xmlns="http://www.w3.org/2000/svg">
<path d="M32.2665 9.48828C32.059 9.25545 31.8046 9.06925 31.5199 8.94199C31.2352 8.81473 30.9267 8.74929 30.6149 8.75H24.0633C24.0633 7.00952 23.3719 5.34032 22.1412 4.10961C20.9105 2.8789 19.2413 2.1875 17.5008 2.1875C15.7604 2.1875 14.0912 2.8789 12.8604 4.10961C11.6297 5.34032 10.9383 7.00952 10.9383 8.75H4.38677C4.07678 8.75084 3.77044 8.81702 3.48775 8.94423C3.20506 9.07144 2.95236 9.25682 2.74615 9.48828C2.54166 9.71888 2.3882 9.99009 2.29584 10.2841C2.20348 10.5782 2.1743 10.8884 2.21021 11.1945L4.15982 27.6008C4.22306 28.1353 4.48116 28.6278 4.88474 28.984C5.28833 29.3401 5.80906 29.535 6.34732 29.5312H28.6667C29.2049 29.535 29.7256 29.3401 30.1292 28.984C30.5328 28.6278 30.7909 28.1353 30.8542 27.6008L32.8038 11.1945C32.8395 10.8883 32.8101 10.578 32.7175 10.284C32.6249 9.98992 32.4712 9.71877 32.2665 9.48828ZM17.5008 4.375C18.6612 4.375 19.774 4.83594 20.5944 5.65641C21.4149 6.47688 21.8758 7.58968 21.8758 8.75H13.1258C13.1258 7.58968 13.5868 6.47688 14.4072 5.65641C15.2277 4.83594 16.3405 4.375 17.5008 4.375ZM28.679 27.3438C28.675 27.3452 28.6706 27.3452 28.6667 27.3438H6.32408L4.38677 10.9375H10.9383V14.2188C10.9383 14.5088 11.0536 14.787 11.2587 14.9921C11.4638 15.1973 11.742 15.3125 12.0321 15.3125C12.3222 15.3125 12.6004 15.1973 12.8055 14.9921C13.0106 14.787 13.1258 14.5088 13.1258 14.2188V10.9375H21.8758V14.2188C21.8758 14.5088 21.9911 14.787 22.1962 14.9921C22.4013 15.1973 22.6795 15.3125 22.9696 15.3125C23.2597 15.3125 23.5379 15.1973 23.743 14.9921C23.9481 14.787 24.0633 14.5088 24.0633 14.2188V10.9375H30.6258L28.679 27.3438Z" fill="black"/>
</svg>
