<svg width="32" height="32" viewBox="0 0 32 32" fill="none" xmlns="http://www.w3.org/2000/svg">
<g clip-path="url(#clip0_87_13449)">
<path d="M31.7081 16.7075L28.7081 19.7075C28.6152 19.8005 28.5049 19.8743 28.3835 19.9246C28.2621 19.9749 28.132 20.0008 28.0006 20.0008C27.8691 20.0008 27.739 19.9749 27.6176 19.9246C27.4962 19.8743 27.3859 19.8005 27.2931 19.7075L24.2931 16.7075C24.1054 16.5199 24 16.2654 24 16C24 15.7347 24.1054 15.4802 24.2931 15.2925C24.4807 15.1049 24.7352 14.9995 25.0006 14.9995C25.2659 14.9995 25.5204 15.1049 25.7081 15.2925L27.0006 16.5863V16C27.0017 13.6708 26.2635 11.4014 24.8922 9.5186C23.5209 7.63583 21.5874 6.23694 19.3702 5.52343C17.1529 4.80993 14.7664 4.81866 12.5545 5.54835C10.3425 6.27805 8.41928 7.69104 7.06181 9.58379C6.90699 9.79928 6.6729 9.94444 6.41106 9.98734C6.14921 10.0302 5.88104 9.96736 5.66556 9.81254C5.45007 9.65772 5.30491 9.42364 5.26201 9.16179C5.21911 8.89994 5.28199 8.63178 5.43681 8.41629C7.04117 6.17944 9.31416 4.5096 11.9283 3.64731C14.5425 2.78503 17.3629 2.77482 19.9833 3.61815C22.6036 4.46149 24.8887 6.11483 26.5092 8.34001C28.1297 10.5652 29.002 13.2473 29.0006 16V16.5863L30.2931 15.2925C30.4807 15.1049 30.7352 14.9995 31.0006 14.9995C31.2659 14.9995 31.5204 15.1049 31.7081 15.2925C31.8957 15.4802 32.0011 15.7347 32.0011 16C32.0011 16.2654 31.8957 16.5199 31.7081 16.7075ZM26.5606 23.5825C24.9557 25.8177 22.6831 27.486 20.0697 28.3473C17.4564 29.2086 14.6372 29.2184 12.0178 28.3755C9.39854 27.5325 7.11427 25.8801 5.49385 23.6562C3.87343 21.4323 3.00045 18.7517 3.00056 16V15.4138L1.70806 16.7075C1.52042 16.8952 1.26592 17.0006 1.00056 17.0006C0.735192 17.0006 0.480697 16.8952 0.293056 16.7075C0.105415 16.5199 0 16.2654 0 16C0 15.7347 0.105415 15.4802 0.293056 15.2925L3.29306 12.2925C3.38593 12.1996 3.49622 12.1258 3.61762 12.0755C3.73901 12.0252 3.86914 11.9993 4.00056 11.9993C4.13197 11.9993 4.2621 12.0252 4.3835 12.0755C4.50489 12.1258 4.61518 12.1996 4.70806 12.2925L7.70806 15.2925C7.8957 15.4802 8.00111 15.7347 8.00111 16C8.00111 16.2654 7.8957 16.5199 7.70806 16.7075C7.52042 16.8952 7.26592 17.0006 7.00056 17.0006C6.73519 17.0006 6.4807 16.8952 6.29306 16.7075L5.00056 15.4138V16C4.99819 18.6928 5.98787 21.292 7.78056 23.3013C8.89585 21.6851 10.4641 20.4348 12.2881 19.7075C11.3083 18.9359 10.5933 17.878 10.2426 16.6812C9.89195 15.4843 9.92293 14.2079 10.3313 13.0295C10.7396 11.851 11.5051 10.8291 12.5211 10.1059C13.5372 9.38266 14.7534 8.99401 16.0006 8.99401C17.2477 8.99401 18.4639 9.38266 19.48 10.1059C20.496 10.8291 21.2615 11.851 21.6698 13.0295C22.0782 14.2079 22.1092 15.4843 21.7585 16.6812C21.4078 17.878 20.6928 18.9359 19.7131 19.7075C21.5387 20.4349 23.108 21.6868 24.2231 23.305C24.4759 23.0211 24.7141 22.7245 24.9368 22.4163C25.0916 22.2008 25.3257 22.0556 25.5876 22.0127C25.8494 21.9698 26.1176 22.0327 26.3331 22.1875C26.5485 22.3424 26.6937 22.5764 26.7366 22.8383C26.7795 23.1001 26.7166 23.3683 26.5618 23.5838L26.5606 23.5825ZM16.0006 19C16.7917 19 17.565 18.7654 18.2228 18.3259C18.8806 17.8864 19.3933 17.2617 19.6961 16.5308C19.9988 15.7999 20.078 14.9956 19.9237 14.2197C19.7694 13.4438 19.3884 12.731 18.829 12.1716C18.2696 11.6122 17.5568 11.2312 16.7809 11.0769C16.005 10.9226 15.2007 11.0018 14.4698 11.3045C13.7389 11.6073 13.1142 12.12 12.6747 12.7778C12.2352 13.4356 12.0006 14.2089 12.0006 15C12.0006 16.0609 12.422 17.0783 13.1721 17.8285C13.9223 18.5786 14.9397 19 16.0006 19ZM16.0006 27C18.4411 26.9969 20.8116 26.184 22.7406 24.6888C22.0171 23.5574 21.0205 22.6263 19.8427 21.9814C18.6648 21.3364 17.3435 20.9984 16.0006 20.9984C14.6577 20.9984 13.3364 21.3364 12.1585 21.9814C10.9806 22.6263 9.98397 23.5574 9.26056 24.6888C11.1866 26.1893 13.559 27.0029 16.0006 27Z" fill="black"/>
</g>
<defs>
<clipPath id="clip0_87_13449">
<rect width="32" height="32" fill="white"/>
</clipPath>
</defs>
</svg>
