<svg width="35" height="35" viewBox="0 0 35 35" fill="none" xmlns="http://www.w3.org/2000/svg">
<path d="M10.9375 8.75C10.9375 8.45992 11.0527 8.18172 11.2579 7.9766C11.463 7.77148 11.7412 7.65625 12.0313 7.65625H29.5312C29.8213 7.65625 30.0995 7.77148 30.3046 7.9766C30.5098 8.18172 30.625 8.45992 30.625 8.75C30.625 9.04008 30.5098 9.31828 30.3046 9.5234C30.0995 9.72852 29.8213 9.84375 29.5312 9.84375H12.0313C11.7412 9.84375 11.463 9.72852 11.2579 9.5234C11.0527 9.31828 10.9375 9.04008 10.9375 8.75ZM29.5312 16.4062H12.0313C11.7412 16.4062 11.463 16.5215 11.2579 16.7266C11.0527 16.9317 10.9375 17.2099 10.9375 17.5C10.9375 17.7901 11.0527 18.0683 11.2579 18.2734C11.463 18.4785 11.7412 18.5938 12.0313 18.5938H29.5312C29.8213 18.5938 30.0995 18.4785 30.3046 18.2734C30.5098 18.0683 30.625 17.7901 30.625 17.5C30.625 17.2099 30.5098 16.9317 30.3046 16.7266C30.0995 16.5215 29.8213 16.4062 29.5312 16.4062ZM29.5312 25.1562H12.0313C11.7412 25.1562 11.463 25.2715 11.2579 25.4766C11.0527 25.6817 10.9375 25.9599 10.9375 26.25C10.9375 26.5401 11.0527 26.8183 11.2579 27.0234C11.463 27.2285 11.7412 27.3438 12.0313 27.3438H29.5312C29.8213 27.3438 30.0995 27.2285 30.3046 27.0234C30.5098 26.8183 30.625 26.5401 30.625 26.25C30.625 25.9599 30.5098 25.6817 30.3046 25.4766C30.0995 25.2715 29.8213 25.1562 29.5312 25.1562ZM6.01563 7.10938C5.69114 7.10938 5.37394 7.2056 5.10414 7.38587C4.83434 7.56614 4.62406 7.82237 4.49989 8.12216C4.37571 8.42194 4.34322 8.75182 4.40652 9.07007C4.46983 9.38832 4.62608 9.68065 4.85553 9.9101C5.08497 10.1395 5.37731 10.2958 5.69556 10.3591C6.01381 10.4224 6.34368 10.3899 6.64347 10.2657C6.94325 10.1416 7.19948 9.93128 7.37976 9.66148C7.56003 9.39168 7.65625 9.07448 7.65625 8.75C7.65625 8.31488 7.4834 7.89758 7.17572 7.5899C6.86805 7.28223 6.45075 7.10938 6.01563 7.10938ZM6.01563 15.8594C5.69114 15.8594 5.37394 15.9556 5.10414 16.1359C4.83434 16.3161 4.62406 16.5724 4.49989 16.8722C4.37571 17.1719 4.34322 17.5018 4.40652 17.8201C4.46983 18.1383 4.62608 18.4307 4.85553 18.6601C5.08497 18.8895 5.37731 19.0458 5.69556 19.1091C6.01381 19.1724 6.34368 19.1399 6.64347 19.0157C6.94325 18.8916 7.19948 18.6813 7.37976 18.4115C7.56003 18.1417 7.65625 17.8245 7.65625 17.5C7.65625 17.0649 7.4834 16.6476 7.17572 16.3399C6.86805 16.0322 6.45075 15.8594 6.01563 15.8594ZM6.01563 24.6094C5.69114 24.6094 5.37394 24.7056 5.10414 24.8859C4.83434 25.0661 4.62406 25.3224 4.49989 25.6222C4.37571 25.9219 4.34322 26.2518 4.40652 26.5701C4.46983 26.8883 4.62608 27.1807 4.85553 27.4101C5.08497 27.6395 5.37731 27.7958 5.69556 27.8591C6.01381 27.9224 6.34368 27.8899 6.64347 27.7657C6.94325 27.6416 7.19948 27.4313 7.37976 27.1615C7.56003 26.8917 7.65625 26.5745 7.65625 26.25C7.65625 25.8149 7.4834 25.3976 7.17572 25.0899C6.86805 24.7822 6.45075 24.6094 6.01563 24.6094Z" fill="black"/>
</svg>
