<svg width="35" height="35" viewBox="0 0 35 35" fill="none" xmlns="http://www.w3.org/2000/svg">
<path d="M31.5711 28.9844C29.4889 25.3846 26.2801 22.8034 22.5354 21.5797C24.3877 20.4771 25.8268 18.7968 26.6318 16.797C27.4367 14.7973 27.563 12.5886 26.9911 10.5101C26.4193 8.43166 25.181 6.59837 23.4664 5.29179C21.7518 3.98521 19.6557 3.27759 17.5 3.27759C15.3444 3.27759 13.2483 3.98521 11.5337 5.29179C9.81908 6.59837 8.58079 8.43166 8.00895 10.5101C7.43712 12.5886 7.56337 14.7973 8.36831 16.797C9.17326 18.7968 10.6124 20.4771 12.4647 21.5797C8.71997 22.802 5.51118 25.3833 3.42896 28.9844C3.3526 29.1089 3.30195 29.2475 3.28 29.3919C3.25805 29.5363 3.26524 29.6836 3.30116 29.8252C3.33707 29.9668 3.40098 30.0997 3.4891 30.2162C3.57723 30.3327 3.68779 30.4303 3.81426 30.5034C3.94074 30.5764 4.08056 30.6234 4.22549 30.6415C4.37042 30.6597 4.51751 30.6486 4.65809 30.609C4.79867 30.5693 4.92988 30.502 5.044 30.4108C5.15811 30.3196 5.25281 30.2065 5.32251 30.0782C7.89829 25.6266 12.451 22.9688 17.5 22.9688C22.5491 22.9688 27.1018 25.6266 29.6776 30.0782C29.7473 30.2065 29.842 30.3196 29.9561 30.4108C30.0702 30.502 30.2014 30.5693 30.342 30.609C30.4826 30.6486 30.6297 30.6597 30.7746 30.6415C30.9195 30.6234 31.0594 30.5764 31.1858 30.5034C31.3123 30.4303 31.4229 30.3327 31.511 30.2162C31.5991 30.0997 31.663 29.9668 31.6989 29.8252C31.7349 29.6836 31.742 29.5363 31.7201 29.3919C31.6981 29.2475 31.6475 29.1089 31.5711 28.9844ZM9.8438 13.1251C9.8438 11.6108 10.2928 10.1305 11.1341 8.87147C11.9754 7.61241 13.1711 6.63109 14.5701 6.0516C15.9691 5.47212 17.5085 5.3205 18.9937 5.61592C20.4789 5.91134 21.8431 6.64052 22.9138 7.71127C23.9846 8.78202 24.7138 10.1462 25.0092 11.6314C25.3046 13.1166 25.153 14.656 24.5735 16.055C23.994 17.454 23.0127 18.6497 21.7536 19.491C20.4946 20.3323 19.0143 20.7813 17.5 20.7813C15.4702 20.7791 13.524 19.9718 12.0887 18.5364C10.6533 17.1011 9.84597 15.155 9.8438 13.1251Z" fill="black"/>
</svg>
