<svg width="32" height="32" viewBox="0 0 32 32" fill="none" xmlns="http://www.w3.org/2000/svg">
<path d="M16.7071 4.2925L25.7071 13.2925C25.8947 13.4801 26.0001 13.7346 26.0001 14C26.0001 14.2654 25.8947 14.5199 25.7071 14.7075C25.5194 14.8951 25.2649 15.0006 24.9996 15.0006C24.7342 15.0006 24.4797 14.8951 24.2921 14.7075L16.9996 7.41375L16.9996 27C16.9996 27.2652 16.8942 27.5196 16.7067 27.7071C16.5192 27.8946 16.2648 28 15.9996 28C15.7344 28 15.48 27.8946 15.2925 27.7071C15.1049 27.5196 14.9996 27.2652 14.9996 27L14.9996 7.41375L7.70708 14.7075C7.51944 14.8951 7.26494 15.0006 6.99958 15.0006C6.73421 15.0006 6.47972 14.8951 6.29208 14.7075C6.10444 14.5199 5.99902 14.2654 5.99902 14C5.99902 13.7346 6.10444 13.4801 6.29208 13.2925L15.2921 4.2925C15.385 4.19952 15.4952 4.12576 15.6166 4.07544C15.738 4.02512 15.8682 3.99921 15.9996 3.99921C16.131 3.99921 16.2611 4.02512 16.3825 4.07544C16.5039 4.12576 16.6142 4.19952 16.7071 4.2925Z" fill="white"/>
</svg>
