<svg width="50" height="50" viewBox="0 0 50 50" fill="none" xmlns="http://www.w3.org/2000/svg">
<path d="M25 0.625C20.1791 0.625 15.4664 2.05457 11.458 4.73293C7.44954 7.41129 4.32533 11.2181 2.48045 15.6721C0.635561 20.126 0.152855 25.027 1.09337 29.7553C2.03388 34.4836 4.35538 38.8268 7.76428 42.2357C11.1732 45.6446 15.5164 47.9661 20.2447 48.9066C24.973 49.8472 29.874 49.3644 34.3279 47.5196C38.7819 45.6747 42.5887 42.5505 45.2671 38.542C47.9454 34.5336 49.375 29.8209 49.375 25C49.3682 18.5374 46.7979 12.3415 42.2282 7.77181C37.6585 3.20209 31.4626 0.631825 25 0.625ZM25 45.625C20.9208 45.625 16.9331 44.4154 13.5414 42.1491C10.1496 39.8828 7.50605 36.6616 5.94499 32.8928C4.38394 29.1241 3.97549 24.9771 4.77131 20.9763C5.56713 16.9754 7.53148 13.3004 10.4159 10.4159C13.3004 7.53146 16.9754 5.56712 20.9763 4.7713C24.9771 3.97548 29.1241 4.38393 32.8929 5.94498C36.6616 7.50604 39.8828 10.1496 42.1491 13.5414C44.4154 16.9331 45.625 20.9208 45.625 25C45.6188 30.4682 43.4438 35.7106 39.5772 39.5772C35.7106 43.4438 30.4682 45.6188 25 45.625ZM35.7016 23.6734C35.8759 23.8476 36.0142 24.0544 36.1086 24.282C36.2029 24.5096 36.2515 24.7536 36.2515 25C36.2515 25.2464 36.2029 25.4904 36.1086 25.718C36.0142 25.9456 35.8759 26.1524 35.7016 26.3266L28.2016 33.8266C27.8497 34.1784 27.3726 34.376 26.875 34.376C26.3775 34.376 25.9003 34.1784 25.5484 33.8266C25.1966 33.4747 24.999 32.9976 24.999 32.5C24.999 32.0024 25.1966 31.5253 25.5484 31.1734L29.8492 26.875H15.625C15.1277 26.875 14.6508 26.6775 14.2992 26.3258C13.9476 25.9742 13.75 25.4973 13.75 25C13.75 24.5027 13.9476 24.0258 14.2992 23.6742C14.6508 23.3225 15.1277 23.125 15.625 23.125H29.8492L25.5484 18.8266C25.1966 18.4747 24.999 17.9976 24.999 17.5C24.999 17.0024 25.1966 16.5253 25.5484 16.1734C25.9003 15.8216 26.3775 15.624 26.875 15.624C27.3726 15.624 27.8497 15.8216 28.2016 16.1734L35.7016 23.6734Z" fill="white"/>
</svg>
