<svg width="42" height="32" viewBox="0 0 42 32" fill="none" xmlns="http://www.w3.org/2000/svg">
<rect width="42" height="31.2" rx="3" fill="#0077FF"/>
<path d="M33.2376 9.87746C33.4062 9.31323 33.2376 8.89795 32.4264 8.89795H29.7422C29.0586 8.89795 28.7441 9.25455 28.5755 9.65177C28.5755 9.65177 27.2083 12.9514 25.276 15.091C24.6517 15.7094 24.3646 15.908 24.0228 15.908C23.8542 15.908 23.5944 15.7094 23.5944 15.1452V9.87746C23.5944 9.20038 23.403 8.89795 22.8379 8.89795H18.6178C18.1895 8.89795 17.9342 9.21392 17.9342 9.50732C17.9342 10.1483 18.9004 10.2973 19.0006 12.1028V16.0209C19.0006 16.8785 18.8457 17.0365 18.5039 17.0365C17.5924 17.0365 15.3776 13.7233 14.0651 9.93163C13.8008 9.19587 13.541 8.89795 12.8529 8.89795H10.1686C9.40299 8.89795 9.24805 9.25455 9.24805 9.65177C9.24805 10.3559 10.1595 13.8542 13.4909 18.4764C15.7103 21.6316 18.8366 23.3424 21.6803 23.3424C23.3893 23.3424 23.599 22.9632 23.599 22.3087C23.599 19.2934 23.444 19.0091 24.3008 19.0091C24.6973 19.0091 25.3809 19.2077 26.9759 20.7289C28.7988 22.5344 29.0996 23.3424 30.1204 23.3424H32.8047C33.5703 23.3424 33.9577 22.9632 33.7344 22.2139C33.224 20.6386 29.7741 17.3976 29.6191 17.1809C29.2227 16.6754 29.3366 16.4497 29.6191 15.9983C29.6237 15.9938 32.9004 11.4257 33.2376 9.87746Z" fill="white"/>
</svg>
