<svg width="70" height="70" viewBox="0 0 70 70" fill="none" xmlns="http://www.w3.org/2000/svg">
<circle cx="35" cy="35" r="35" fill="#FE9B00"/>
<path d="M35 18.75C31.7861 18.75 28.6443 19.703 25.972 21.4886C23.2997 23.2742 21.2169 25.8121 19.987 28.7814C18.757 31.7507 18.4352 35.018 19.0622 38.1702C19.6893 41.3224 21.2369 44.2179 23.5095 46.4905C25.7821 48.7631 28.6776 50.3107 31.8298 50.9378C34.982 51.5648 38.2493 51.243 41.2186 50.013C44.1879 48.7831 46.7258 46.7003 48.5114 44.028C50.297 41.3557 51.25 38.2139 51.25 35C51.2455 30.6916 49.5319 26.561 46.4855 23.5145C43.439 20.4681 39.3084 18.7545 35 18.75ZM48.75 35C48.7514 36.764 48.4118 38.5117 47.75 40.1469L40.7656 35.8516C40.4687 35.6683 40.1365 35.5496 39.7906 35.5031L36.225 35.0219C35.7337 34.9578 35.2344 35.0402 34.7897 35.2586C34.3449 35.4771 33.9746 35.822 33.725 36.25H32.3625L31.7688 35.0219C31.6046 34.6799 31.3644 34.38 31.0665 34.1452C30.7686 33.9104 30.4209 33.7469 30.05 33.6672L28.8 33.3969L30.0219 31.25H32.6328C33.0553 31.2492 33.4708 31.1417 33.8406 30.9375L35.7547 29.8812C35.9229 29.7875 36.0801 29.6754 36.2234 29.5469L40.4281 25.7438C40.8497 25.366 41.1299 24.8558 41.2225 24.2973C41.3151 23.7388 41.2146 23.1655 40.9375 22.6719L40.8813 22.5703C43.2341 23.6859 45.2222 25.4459 46.615 27.646C48.0078 29.8461 48.7481 32.3961 48.75 35ZM37.3922 21.4594L38.75 23.8906L34.5453 27.6937L32.6328 28.75H30.0219C29.5824 28.7494 29.1505 28.8646 28.7698 29.084C28.389 29.3035 28.0729 29.6194 27.8531 30L26.4891 32.3797L24.9031 28.1547L26.6125 24.1125C28.1255 22.9434 29.8661 22.1033 31.7226 21.6459C33.5792 21.1885 35.5108 21.1239 37.3938 21.4562L37.3922 21.4594ZM21.25 35C21.2479 32.9563 21.7039 30.9381 22.5844 29.0938L24.3563 33.8234C24.5039 34.215 24.7475 34.5633 25.0647 34.8363C25.382 35.1093 25.7626 35.2983 26.1719 35.3859L29.5203 36.1063L30.1156 37.3438C30.3222 37.7646 30.6424 38.1194 31.04 38.3679C31.4376 38.6164 31.8968 38.7487 32.3656 38.75H32.5969L31.4672 41.2859C31.2681 41.7325 31.2044 42.2276 31.2838 42.71C31.3632 43.1923 31.5824 43.6409 31.9141 44L31.9359 44.0219L35 47.1781L34.6969 48.7406C31.106 48.6571 27.6899 47.1734 25.1777 44.6063C22.6655 42.0392 21.256 38.5919 21.25 35ZM37.2781 48.5594L37.4547 47.6516C37.5273 47.2659 37.5085 46.8686 37.4 46.4914C37.2915 46.1143 37.0962 45.7678 36.8297 45.4797C36.822 45.4728 36.8147 45.4655 36.8078 45.4578L33.75 42.3031L35.8906 37.5L39.4563 37.9813L46.6 42.375C45.565 44.0004 44.2006 45.3906 42.595 46.4558C40.9893 47.5211 39.178 48.2377 37.2781 48.5594Z" fill="white"/>
</svg>
