<svg width="70" height="70" viewBox="0 0 70 70" fill="none" xmlns="http://www.w3.org/2000/svg">
<circle cx="35" cy="35" r="35" fill="#FE9B00"/>
<path d="M49.95 25.3358L36.2 17.8124C35.8326 17.6094 35.4197 17.5029 35 17.5029C34.5803 17.5029 34.1674 17.6094 33.8 17.8124L20.05 25.339C19.6573 25.5538 19.3295 25.8702 19.1009 26.2549C18.8722 26.6397 18.751 27.0789 18.75 27.5265V42.4702C18.751 42.9178 18.8722 43.357 19.1009 43.7417C19.3295 44.1265 19.6573 44.4429 20.05 44.6577L33.8 52.1843C34.1674 52.3873 34.5803 52.4938 35 52.4938C35.4197 52.4938 35.8326 52.3873 36.2 52.1843L49.95 44.6577C50.3427 44.4429 50.6705 44.1265 50.8991 43.7417C51.1278 43.357 51.249 42.9178 51.25 42.4702V27.528C51.2498 27.0796 51.129 26.6395 50.9003 26.2538C50.6716 25.8681 50.3434 25.5511 49.95 25.3358ZM35 19.9999L47.5531 26.8749L42.9016 29.4218L30.3469 22.5468L35 19.9999ZM35 33.7499L22.4469 26.8749L27.7437 23.9749L40.2969 30.8499L35 33.7499ZM21.25 29.0624L33.75 35.903V49.3077L21.25 42.4718V29.0624ZM48.75 42.4655L36.25 49.3077V35.9093L41.25 33.1733V38.7499C41.25 39.0814 41.3817 39.3994 41.6161 39.6338C41.8505 39.8682 42.1685 39.9999 42.5 39.9999C42.8315 39.9999 43.1495 39.8682 43.3839 39.6338C43.6183 39.3994 43.75 39.0814 43.75 38.7499V31.8046L48.75 29.0624V42.464V42.4655Z" fill="white"/>
</svg>
