<svg width="70" height="70" viewBox="0 0 70 70" fill="none" xmlns="http://www.w3.org/2000/svg">
<circle cx="35" cy="35" r="35" fill="#FE9B00"/>
<path d="M49.4175 39.7717C49.2393 39.6593 49.0355 39.5937 48.8252 39.5812C48.6149 39.5686 48.4047 39.6094 48.2144 39.6998C47.7381 39.9251 47.2126 40.0263 46.6867 39.9939C46.1608 39.9616 45.6516 39.7969 45.2065 39.515C44.7613 39.2331 44.3947 38.8432 44.1406 38.3816C43.8866 37.92 43.7534 37.4017 43.7534 36.8748C43.7534 36.3479 43.8866 35.8296 44.1406 35.368C44.3947 34.9064 44.7613 34.5166 45.2065 34.2347C45.6516 33.9528 46.1608 33.788 46.6867 33.7557C47.2126 33.7234 47.7381 33.8246 48.2144 34.0498C48.405 34.1403 48.6153 34.181 48.8259 34.1683C49.0364 34.1555 49.2403 34.0897 49.4186 33.9769C49.5968 33.8642 49.7436 33.7082 49.8454 33.5234C49.9471 33.3386 50.0004 33.1311 50.0003 32.9201V26.2498C50.0003 25.5868 49.7369 24.9509 49.2681 24.4821C48.7993 24.0132 48.1634 23.7498 47.5003 23.7498H41.841C41.8642 23.5423 41.8757 23.3336 41.8753 23.1248C41.8742 22.3566 41.7162 21.5967 41.4109 20.8917C41.1057 20.1866 40.6597 19.5514 40.1003 19.0248C39.3258 18.2973 38.361 17.8041 37.3176 17.6024C36.2743 17.4006 35.1952 17.4984 34.2052 17.8846C33.2153 18.2708 32.3549 18.9295 31.7238 19.7845C31.0928 20.6394 30.7168 21.6556 30.6394 22.7154C30.6154 23.0602 30.6227 23.4064 30.6613 23.7498H25.0003C24.3373 23.7498 23.7014 24.0132 23.2326 24.4821C22.7637 24.9509 22.5003 25.5868 22.5003 26.2498V31.2842C22.2928 31.2609 22.0842 31.2495 21.8753 31.2498C21.1071 31.2511 20.3472 31.4091 19.6422 31.7143C18.9372 32.0196 18.302 32.4655 17.7753 33.0248C17.2449 33.5851 16.8365 34.2493 16.5759 34.9754C16.3153 35.7016 16.2082 36.4739 16.2613 37.2436C16.3508 38.5988 16.9267 39.8762 17.8829 40.8408C18.8392 41.8053 20.1115 42.3923 21.466 42.4936C21.8107 42.5184 22.157 42.511 22.5003 42.4717V47.4998C22.5003 48.1629 22.7637 48.7988 23.2326 49.2676C23.7014 49.7364 24.3373 49.9998 25.0003 49.9998H47.5003C48.1634 49.9998 48.7993 49.7364 49.2681 49.2676C49.7369 48.7988 50.0003 48.1629 50.0003 47.4998V40.8295C50.0005 40.6183 49.9471 40.4105 49.8452 40.2255C49.7432 40.0406 49.5961 39.8844 49.4175 39.7717ZM47.5003 47.4998H25.0003V40.8295C25.0004 40.6186 24.9471 40.4111 24.8454 40.2263C24.7436 40.0415 24.5968 39.8855 24.4186 39.7727C24.2403 39.6599 24.0364 39.5941 23.8259 39.5814C23.6153 39.5686 23.405 39.6094 23.2144 39.6998C22.7381 39.9251 22.2126 40.0263 21.6867 39.9939C21.1608 39.9616 20.6516 39.7969 20.2065 39.515C19.7613 39.2331 19.3947 38.8432 19.1406 38.3816C18.8866 37.92 18.7534 37.4017 18.7534 36.8748C18.7534 36.3479 18.8866 35.8296 19.1406 35.368C19.3947 34.9064 19.7613 34.5166 20.2065 34.2347C20.6516 33.9528 21.1608 33.788 21.6867 33.7557C22.2126 33.7234 22.7381 33.8246 23.2144 34.0498C23.405 34.1403 23.6153 34.181 23.8259 34.1683C24.0364 34.1555 24.2403 34.0897 24.4186 33.9769C24.5968 33.8642 24.7436 33.7082 24.8454 33.5234C24.9471 33.3386 25.0004 33.1311 25.0003 32.9201V26.2498H32.2956C32.5066 26.2499 32.7141 26.1966 32.8989 26.0949C33.0837 25.9931 33.2397 25.8463 33.3525 25.668C33.4652 25.4898 33.531 25.2859 33.5438 25.0753C33.5565 24.8648 33.5158 24.6544 33.4253 24.4639C33.2001 23.9876 33.0989 23.4621 33.1312 22.9362C33.1635 22.4103 33.3283 21.9011 33.6102 21.4559C33.8921 21.0108 34.2819 20.6442 34.7435 20.3901C35.2051 20.1361 35.7234 20.0028 36.2503 20.0028C36.7772 20.0028 37.2956 20.1361 37.7571 20.3901C38.2187 20.6442 38.6086 21.0108 38.8905 21.4559C39.1724 21.9011 39.3371 22.4103 39.3695 22.9362C39.4018 23.4621 39.3006 23.9876 39.0753 24.4639C38.9849 24.6544 38.9442 24.8648 38.9569 25.0753C38.9696 25.2859 39.0355 25.4898 39.1482 25.668C39.261 25.8463 39.417 25.9931 39.6018 26.0949C39.7866 26.1966 39.9941 26.2499 40.205 26.2498H47.5003V31.2858C47.157 31.2464 46.8107 31.2391 46.466 31.2639C45.0111 31.3669 43.6532 32.031 42.6786 33.116C41.704 34.201 41.1889 35.6221 41.242 37.0796C41.2951 38.5371 41.9122 39.917 42.9632 40.9283C44.0142 41.9395 45.4169 42.503 46.8753 42.4998C47.0842 42.5002 47.2928 42.4887 47.5003 42.4655V47.4998Z" fill="white"/>
</svg>
